# xmcd
#
# Track frame offsets: 
#        150
#        14761
#        31835
#        46780
#        62204
#        78972
#        93306
#        106302
#        125637
#        138541
#        151895
#        167478
#        179707
#
# Disc length: 2587 seconds
#
# Revision: 0
# Processed by: cddbd v1.5.1PL2 Copyright (c) Steve Scherf et al.
# Submitted via: ExactAudioCopy v0.95b4
#
DISCID=a80a190d
DTITLE=Zachary Hunter - In Your Dreams
DYEAR=2006
DGENRE=Country
TTITLE0=Place In The Heart
TTITLE1=As Long As We Believe
TTITLE2=Fire It Up
TTITLE3=In The Moonlight
TTITLE4=In Your Dreams
TTITLE5=It's A Long Road
TTITLE6=Melinda Mae
TTITLE7=Muddy River
TTITLE8=Something Big
TTITLE9=Those Aren't Tears
TTITLE10=Travelin' Bone
TTITLE11=Two Lonesome Hearts
TTITLE12=Until Your Dying Day
EXTD=
EXTT0=
EXTT1=
EXTT2=
EXTT3=
EXTT4=
EXTT5=
EXTT6=
EXTT7=
EXTT8=
EXTT9=
EXTT10=
EXTT11=
EXTT12=
PLAYORDER=
